<?xml version="1.0" standalone="yes"?>

<svg version="1.1" viewBox="0.0 0.0 292.9475065616798 229.81627296587928" fill="none" stroke="none" stroke-linecap="square" stroke-miterlimit="10" xmlns="http://www.w3.org/2000/svg" xmlns:xlink="http://www.w3.org/1999/xlink"><clipPath id="p.0"><path d="m0 0l292.9475 0l0 229.81627l-292.9475 0l0 -229.81627z" clip-rule="nonzero"></path></clipPath><g clip-path="url(#p.0)"><path fill="#000000" fill-opacity="0.0" d="m0 0l292.9475 0l0 229.81627l-292.9475 0z" fill-rule="nonzero"></path><path fill="#ffd966" fill-opacity="0.5148" d="m11.386069 9.466853l0 0c20.647621 -19.186459 70.55201 0.9431 111.46457 44.96063l0 0c40.91256 44.017532 57.340538 95.25448 36.69291 114.44094l0 0c-20.647629 19.186462 -70.55201 -0.9431 -111.46457 -44.960625l0 0c-40.91256 -44.017532 -57.340538 -95.254486 -36.692913 -114.44095z" fill-rule="nonzero"></path><path fill="#ffd966" fill-opacity="0.5148" d="m283.426 8.537804l0 0c-20.647614 -19.186459 -70.552 0.9431009 -111.464554 44.96063l0 0c-40.912567 44.01753 -57.340546 95.254486 -36.692917 114.44095l0 0c20.647614 19.186462 70.552 -0.9431 111.46457 -44.960625l0 0c40.912567 -44.017532 57.340515 -95.254486 36.6929 -114.44095z" fill-rule="nonzero"></path><path fill="#93c47d" fill-opacity="0.4373" d="m135.74661 79.30096l0 0c-22.96112 13.254829 -22.890617 56.369453 0.15748596 96.29922l0 0c23.048111 39.92975 60.345963 61.554047 83.30708 48.29921l0 0c22.961136 -13.254837 22.890625 -56.36946 -0.1574707 -96.29922l0 0c-23.048111 -39.92975 -60.345963 -61.554047 -83.3071 -48.29921z" fill-rule="nonzero"></path><path fill="#93c47d" fill-opacity="0.4373" d="m157.20978 79.301605l0 0c22.961136 13.254837 22.890625 56.36946 -0.15748596 96.29921l0 0c-23.048096 39.92975 -60.345947 61.554047 -83.307076 48.29921l0 0c-22.961132 -13.254822 -22.890629 -56.36946 0.15747833 -96.29921l0 0c23.048103 -39.92975 60.345963 -61.554047 83.30708 -48.29921z" fill-rule="nonzero"></path></g></svg>

